<svg version="1.2" xmlns="http://www.w3.org/2000/svg" xmlns:xlink="http://www.w3.org/1999/xlink" overflow="visible" preserveAspectRatio="none" viewBox="0 0 16.552176001669864 37.08236805779211" width="16.552176001669864" height="37.08236805779211"><g transform="translate(0, 0)"><defs><path id="path-1649651128208744" d="M20.142939709496275 10.523267330693209 C20.142939709496275 10.523267330693209 5.974526014546268 10.523267330693209 5.974526014546268 10.523267330693209 C5.340257737397755 10.51713988913862 4.730161119448969 10.761318790619352 4.281747624164553 11.20076783742183 C3.8333341288801464 11.640216884224316 3.5843410583197777 12.237953198729093 3.590889689864769 12.859251242463467 C3.590889689864769 12.859251242463467 3.590889689864769 46.20453060437683 3.590889689864769 46.20453060437683 C3.588869574756193 46.70556442146245 3.8616644689330593 47.1690717074794 4.305319078575966 47.418421458204726 C4.521262449175202 47.54510675826173 4.769185110473963 47.60984287644683 5.020850981775919 47.605256972183604 C5.020850981775919 47.605256972183604 5.020850981775919 47.605256972183604 5.020850981775919 47.605256972183604 C5.287562610692488 47.61021481003981 5.5508390126793286 47.54574135184717 5.783791007992199 47.418421458204726 C5.783791007992199 47.418421458204726 15.986460086901799 41.20749058599454 15.986460086901799 41.20749058599454 C15.986460086901799 41.20749058599454 20.142939709496275 43.69143094525094 20.142939709496275 43.69143094525094 C20.142939709496275 43.69143094525094 20.142939709496275 10.523267330693209 20.142939709496275 10.523267330693209 Z" vector-effect="non-scaling-stroke"/></defs><g transform="translate(-3.5907637078264147, -10.52315473080107)"><path d="M20.142939709496275 10.523267330693209 C20.142939709496275 10.523267330693209 5.974526014546268 10.523267330693209 5.974526014546268 10.523267330693209 C5.340257737397755 10.51713988913862 4.730161119448969 10.761318790619352 4.281747624164553 11.20076783742183 C3.8333341288801464 11.640216884224316 3.5843410583197777 12.237953198729093 3.590889689864769 12.859251242463467 C3.590889689864769 12.859251242463467 3.590889689864769 46.20453060437683 3.590889689864769 46.20453060437683 C3.588869574756193 46.70556442146245 3.8616644689330593 47.1690717074794 4.305319078575966 47.418421458204726 C4.521262449175202 47.54510675826173 4.769185110473963 47.60984287644683 5.020850981775919 47.605256972183604 C5.020850981775919 47.605256972183604 5.020850981775919 47.605256972183604 5.020850981775919 47.605256972183604 C5.287562610692488 47.61021481003981 5.5508390126793286 47.54574135184717 5.783791007992199 47.418421458204726 C5.783791007992199 47.418421458204726 15.986460086901799 41.20749058599454 15.986460086901799 41.20749058599454 C15.986460086901799 41.20749058599454 20.142939709496275 43.69143094525094 20.142939709496275 43.69143094525094 C20.142939709496275 43.69143094525094 20.142939709496275 10.523267330693209 20.142939709496275 10.523267330693209 Z" style="stroke-width: 0; stroke-linecap: butt; stroke-linejoin: miter; fill: rgb(179, 193, 170);" vector-effect="non-scaling-stroke"/></g></g></svg>