<svg version="1.2" xmlns="http://www.w3.org/2000/svg" xmlns:xlink="http://www.w3.org/1999/xlink" overflow="visible" preserveAspectRatio="none" viewBox="0 0 16.557689204693304 37.01926975266383" width="16.557689204693304" height="37.01926975266383"><g transform="translate(0, 0)"><defs><path id="path-1649651128209746" d="M71.20148819808298 10.52326733069322 C71.20148819808298 10.52326733069322 57.03307450313301 10.52326733069322 57.03307450313301 10.52326733069322 C57.03307450313301 10.52326733069322 57.03307450313301 43.738949804297526 57.03307450313301 43.738949804297526 C57.03307450313301 43.738949804297526 61.18955412572747 41.20749058599448 61.18955412572747 41.20749058599448 C61.18955412572747 41.20749058599448 71.44293887111964 47.32554368824991 71.44293887111964 47.32554368824991 C71.87595554166403 47.59698738711469 72.42582571642691 47.61480355472258 72.87620770649701 47.37198257322726 C73.31986231613995 47.12263282250193 73.59265721031679 46.659125536485035 73.59063709520821 46.15809171939939 C73.59063709520821 46.15809171939939 73.59063709520821 12.859251242463463 73.59063709520821 12.859251242463463 C73.59721207483081 12.23700632971792 73.34746694640425 11.63843100355192 72.89785129375063 11.198820507804783 C72.44823564109707 10.759210012057657 71.83670691418875 10.515677141404561 71.20148819808298 10.52326733069322 Z" vector-effect="non-scaling-stroke"/></defs><g transform="translate(-57.03307450313301, -10.523095080244623)"><path d="M71.20148819808298 10.52326733069322 C71.20148819808298 10.52326733069322 57.03307450313301 10.52326733069322 57.03307450313301 10.52326733069322 C57.03307450313301 10.52326733069322 57.03307450313301 43.738949804297526 57.03307450313301 43.738949804297526 C57.03307450313301 43.738949804297526 61.18955412572747 41.20749058599448 61.18955412572747 41.20749058599448 C61.18955412572747 41.20749058599448 71.44293887111964 47.32554368824991 71.44293887111964 47.32554368824991 C71.87595554166403 47.59698738711469 72.42582571642691 47.61480355472258 72.87620770649701 47.37198257322726 C73.31986231613995 47.12263282250193 73.59265721031679 46.659125536485035 73.59063709520821 46.15809171939939 C73.59063709520821 46.15809171939939 73.59063709520821 12.859251242463463 73.59063709520821 12.859251242463463 C73.59721207483081 12.23700632971792 73.34746694640425 11.63843100355192 72.89785129375063 11.198820507804783 C72.44823564109707 10.759210012057657 71.83670691418875 10.515677141404561 71.20148819808298 10.52326733069322 Z" style="stroke-width: 0; stroke-linecap: butt; stroke-linejoin: miter; fill: rgb(158, 124, 235);" vector-effect="non-scaling-stroke"/></g></g></svg>