<svg version="1.2" xmlns="http://www.w3.org/2000/svg" xmlns:xlink="http://www.w3.org/1999/xlink" overflow="visible" preserveAspectRatio="none" viewBox="0 0 32.7604245649936 49" width="32.7604245649936" height="49"><g transform="translate(0, 0)"><defs><path id="path-1649651128208742" d="M24.097659180649117 52.57313769069636 C23.76527930315631 52.57899414970948 23.437900101225544 52.49330323700747 23.152804263788795 52.325823628840055 C22.56555547946829 51.99735050760889 22.20447873921875 51.384472316858734 22.207949346928455 50.72206213601582 C22.207949346928455 50.72206213601582 22.207949346928455 6.6591201109456355 22.207949346928455 6.6591201109456355 C22.19961408998402 5.838322570712224 22.528798619834582 5.048764289767378 23.121332942517725 4.468344068389554 C23.71386726520086 3.8879238470117223 24.519904622252174 3.565469348806742 25.357833241292475 3.5736341951214956 C25.357833241292475 3.5736341951214956 51.818180971336844 3.5736341951214956 51.818180971336844 3.5736341951214956 C52.65610959037709 3.5654693488067473 53.46214694742844 3.8879238470117223 54.05468127011156 4.468344068389556 C54.64721559279468 5.048764289767383 54.976400122645245 5.838322570712225 54.9680648657008 6.659120110945644 C54.9680648657008 6.659120110945644 54.9680648657008 50.66050361406895 54.9680648657008 50.66050361406895 C54.97153547341048 51.322913794911955 54.610458733160954 51.93579198566204 54.02320994884053 52.26426510689321 C53.42901960836845 52.58460354270196 52.70356258233717 52.56098508987096 52.13239760063109 52.202706584946434 C52.13239760063109 52.202706584946434 38.58800710631462 44.11910067667071 38.58800710631462 44.11910067667071 C38.58800710631462 44.11910067667071 25.105357423368318 52.326903602909276 25.105357423368318 52.326903602909276 C24.79753213532892 52.49466557901786 24.449857631244033 52.57962088679844 24.097659180649117 52.57313769069636 Z" vector-effect="non-scaling-stroke"/></defs><g transform="translate(-22.20779482381785, -3.573482831167322)"><path d="M24.097659180649117 52.57313769069636 C23.76527930315631 52.57899414970948 23.437900101225544 52.49330323700747 23.152804263788795 52.325823628840055 C22.56555547946829 51.99735050760889 22.20447873921875 51.384472316858734 22.207949346928455 50.72206213601582 C22.207949346928455 50.72206213601582 22.207949346928455 6.6591201109456355 22.207949346928455 6.6591201109456355 C22.19961408998402 5.838322570712224 22.528798619834582 5.048764289767378 23.121332942517725 4.468344068389554 C23.71386726520086 3.8879238470117223 24.519904622252174 3.565469348806742 25.357833241292475 3.5736341951214956 C25.357833241292475 3.5736341951214956 51.818180971336844 3.5736341951214956 51.818180971336844 3.5736341951214956 C52.65610959037709 3.5654693488067473 53.46214694742844 3.8879238470117223 54.05468127011156 4.468344068389556 C54.64721559279468 5.048764289767383 54.976400122645245 5.838322570712225 54.9680648657008 6.659120110945644 C54.9680648657008 6.659120110945644 54.9680648657008 50.66050361406895 54.9680648657008 50.66050361406895 C54.97153547341048 51.322913794911955 54.610458733160954 51.93579198566204 54.02320994884053 52.26426510689321 C53.42901960836845 52.58460354270196 52.70356258233717 52.56098508987096 52.13239760063109 52.202706584946434 C52.13239760063109 52.202706584946434 38.58800710631462 44.11910067667071 38.58800710631462 44.11910067667071 C38.58800710631462 44.11910067667071 25.105357423368318 52.326903602909276 25.105357423368318 52.326903602909276 C24.79753213532892 52.49466557901786 24.449857631244033 52.57962088679844 24.097659180649117 52.57313769069636 Z" style="stroke-width: 0; stroke-linecap: butt; stroke-linejoin: miter; fill: rgb(237, 198, 113);" vector-effect="non-scaling-stroke"/></g></g></svg>